<?xml version="1.0" encoding="UTF-8" standalone="no"?>
<!-- Uploaded to: SVG Repo, www.svgrepo.com, Generator: SVG Repo Mixer Tools -->

<svg
   viewBox="0 -4.5 512 512"
   version="1.1"
   id="svg1"
   sodipodi:docname="icon.svg"
   inkscape:version="1.3.2 (091e20e, 2023-11-25, custom)"
   xml:space="preserve"
   width="512"
   height="512"
   inkscape:export-filename="icon.png"
   inkscape:export-xdpi="48"
   inkscape:export-ydpi="48"
   xmlns:inkscape="http://www.inkscape.org/namespaces/inkscape"
   xmlns:sodipodi="http://sodipodi.sourceforge.net/DTD/sodipodi-0.dtd"
   xmlns="http://www.w3.org/2000/svg"
   xmlns:svg="http://www.w3.org/2000/svg"><defs
     id="defs1"><inkscape:path-effect
       effect="copy_rotate"
       starting_point="0,0"
       origin="260,256"
       id="path-effect7"
       is_visible="true"
       lpeversion="1.2"
       lpesatellites=""
       method="normal"
       num_copies="2"
       starting_angle="0"
       rotation_angle="180"
       gap="0"
       copies_to_360="true"
       mirror_copies="false"
       split_items="false"
       link_styles="false" /><inkscape:path-effect
       effect="mirror_symmetry"
       start_point="8.8469796,249.21909"
       end_point="512.0625,249.21909"
       center_point="260.45474,249.21909"
       id="path-effect3"
       is_visible="true"
       lpeversion="1.2"
       lpesatellites=""
       mode="horizontal"
       discard_orig_path="false"
       fuse_paths="false"
       oposite_fuse="false"
       split_items="false"
       split_open="false"
       link_styles="false" /><inkscape:path-effect
       effect="fillet_chamfer"
       id="path-effect6"
       is_visible="true"
       lpeversion="1"
       nodesatellites_param="F,0,0,1,0,0,0,1 @ F,0,0,1,0,16,0,1 @ F,0,1,1,0,8,0,1 @ F,0,0,1,0,0,0,1 @ F,0,0,1,0,0,0,1 @ F,0,0,1,0,0,0,1 @ F,0,0,1,0,0,0,1 @ F,0,0,1,0,0,0,1 @ F,0,0,1,0,0,0,1 @ F,0,0,1,0,0,0,1 @ F,0,0,1,0,0,0,1 @ F,0,0,1,0,0,0,1 | F,0,0,1,0,8,0,1 @ F,0,0,1,0,8,0,1 @ F,0,0,1,0,8,0,1 @ F,0,0,1,0,8,0,1 @ F,0,0,1,0,8,0,1 @ F,0,0,1,0,8,0,1 @ F,0,0,1,0,8,0,1 @ F,0,0,1,0,8,0,1 @ F,0,0,1,0,8,0,1 @ F,0,0,1,0,8,0,1 @ F,0,0,1,0,8,0,1 @ F,0,0,1,0,8,0,1"
       radius="8"
       unit="px"
       method="auto"
       mode="F"
       chamfer_steps="1"
       flexible="false"
       use_knot_distance="true"
       apply_no_radius="true"
       apply_with_radius="true"
       only_selected="true"
       hide_knots="false" /><inkscape:path-effect
       effect="fillet_chamfer"
       id="path-effect5"
       is_visible="true"
       lpeversion="1"
       nodesatellites_param="F,0,0,1,0,15,0,1 @ F,0,0,1,0,15,0,1 @ F,0,0,1,0,15,0,1"
       radius="15"
       unit="px"
       method="auto"
       mode="F"
       chamfer_steps="1"
       flexible="false"
       use_knot_distance="true"
       apply_no_radius="true"
       apply_with_radius="true"
       only_selected="false"
       hide_knots="false" /><inkscape:path-effect
       effect="fillet_chamfer"
       id="path-effect4"
       is_visible="true"
       lpeversion="1"
       nodesatellites_param="F,0,0,1,0,64,0,1 @ F,0,0,1,0,64,0,1 @ F,0,0,1,0,64,0,1 @ F,0,0,1,0,64,0,1"
       radius="64"
       unit="px"
       method="auto"
       mode="F"
       chamfer_steps="1"
       flexible="false"
       use_knot_distance="true"
       apply_no_radius="true"
       apply_with_radius="true"
       only_selected="false"
       hide_knots="false" /><inkscape:path-effect
       effect="fillet_chamfer"
       id="path-effect2"
       is_visible="true"
       lpeversion="1"
       nodesatellites_param="F,0,0,1,0,38,0,1 @ F,0,0,1,0,38,0,1 @ F,0,0,1,0,38,0,1 @ F,0,0,1,0,38,0,1"
       radius="38"
       unit="px"
       method="auto"
       mode="F"
       chamfer_steps="1"
       flexible="false"
       use_knot_distance="true"
       apply_no_radius="true"
       apply_with_radius="true"
       only_selected="false"
       hide_knots="false" /></defs><sodipodi:namedview
     id="namedview1"
     pagecolor="#ffffff"
     bordercolor="#000000"
     borderopacity="0.25"
     inkscape:showpageshadow="2"
     inkscape:pageopacity="0.0"
     inkscape:pagecheckerboard="0"
     inkscape:deskcolor="#d1d1d1"
     inkscape:zoom="0.70710678"
     inkscape:cx="241.12341"
     inkscape:cy="214.96046"
     inkscape:window-width="1920"
     inkscape:window-height="991"
     inkscape:window-x="1671"
     inkscape:window-y="1071"
     inkscape:window-maximized="1"
     inkscape:current-layer="svg1" /><path
     id="path1"
     style="fill:#f34f29;fill-rule:evenodd;stroke:none;stroke-width:0;stroke-linejoin:round;stroke-opacity:1;fill-opacity:1"
     d="M 256 79.5 A 48.5 48.5 0 0 0 207.5 128 A 48.5 48.5 0 0 0 211.75781 147.8125 L 143.36523 209.30273 A 52 52 0 0 0 113 199.5 A 52 52 0 0 0 61 251.5 A 52 52 0 0 0 113 303.5 A 52 52 0 0 0 144.41992 292.76953 L 203.99219 339.10156 A 56 56 0 0 0 200 359.5 A 56 56 0 0 0 256 415.5 A 56 56 0 0 0 312 359.5 A 56 56 0 0 0 268.5 304.92969 L 268.5 174.78906 A 48.5 48.5 0 0 0 284.38867 167.17773 L 352.50586 228.41992 A 52 52 0 0 0 347 251.5 A 52 52 0 0 0 399 303.5 A 52 52 0 0 0 451 251.5 A 52 52 0 0 0 399 199.5 A 52 52 0 0 0 368.71875 209.37695 L 300.24219 147.8125 A 48.5 48.5 0 0 0 304.5 128 A 48.5 48.5 0 0 0 256 79.5 z M 227.61133 167.17773 A 48.5 48.5 0 0 0 243.5 174.78906 L 243.5 305.05469 A 56 56 0 0 0 218.10156 318.4043 L 160.16797 273.3457 A 52 52 0 0 0 165 251.5 A 52 52 0 0 0 159.55469 228.36719 L 227.61133 167.17773 z " /><path
     style="opacity:1;fill:#f34f29;fill-opacity:1;fill-rule:evenodd;stroke:none;stroke-width:25.4801;stroke-linejoin:miter;stroke-dasharray:none;stroke-opacity:1"
     d="M 251.41936,-4.5 C 116.53408,-4.5 10.614504,98.531964 0.09309231,198.85418 -0.84425837,207.79187 5.4265412,211.2602 13.065894,206.51945 l 16.368826,-10.158 c 3.819676,-2.37038 7.845246,-7.81709 9.155672,-12.11702 C 68.244695,86.938941 154.01706,30.230585 250.67615,30.230585 c 90.80125,0 159.46227,47.676223 192.64276,101.439455 l -25.70464,14.84054 c -5.41081,3.12388 -5.41081,10.93369 0,14.05757 l 82.21115,47.46467 c 5.41064,3.12334 12.17349,-0.78136 12.17368,-7.02879 v -94.92934 c -2e-4,-6.247426 -6.76304,-10.152118 -12.17368,-7.028781 L 473.07947,114.48857 C 430.06411,45.08317 342.71029,-4.5 251.41936,-4.5 Z"
     id="path4" /><path
     style="opacity:1;fill:#f34f29;fill-opacity:1;fill-rule:evenodd;stroke:none;stroke-width:25.4801;stroke-linejoin:miter;stroke-dasharray:none;stroke-opacity:1"
     d="m 260.57974,507.5 c 134.88528,0 240.80486,-103.03196 251.32627,-203.35418 0.93735,-8.93769 -5.33345,-12.40602 -12.9728,-7.66527 l -16.36883,10.158 c -3.81968,2.37038 -7.84525,7.81709 -9.15567,12.11702 -29.6543,97.30549 -115.42667,154.01384 -212.08576,154.01384 -90.80125,0 -159.46227,-47.67622 -192.64276,-101.43945 l 25.70464,-14.84054 c 5.41081,-3.12388 5.41081,-10.93369 0,-14.05757 L 12.17368,294.96718 C 6.7630395,291.84384 1.8953054e-4,295.74854 -4.6945672e-7,301.99597 v 94.92934 C 1.9953054e-4,403.17274 6.7630395,407.07743 12.17368,403.95409 L 38.91963,388.51143 C 81.93499,457.91683 169.28881,507.5 260.57974,507.5 Z"
     id="path7" /></svg>
